<?xml version="1.0" standalone="no"?>
<!DOCTYPE svg PUBLIC "-//W3C//DTD SVG 20010904//EN"
 "http://www.w3.org/TR/2001/REC-SVG-20010904/DTD/svg10.dtd">
<svg version="1.0" xmlns="http://www.w3.org/2000/svg"
 width="760.000000pt" height="507.000000pt" viewBox="0 0 760.000000 507.000000"
 preserveAspectRatio="xMidYMid meet">

<g transform="translate(0.000000,507.000000) scale(0.100000,-0.100000)"
fill="#000000" stroke="none">
<path d="M1526 5033 c-19 -41 -63 -109 -85 -132 -7 -8 -18 -27 -23 -43 -6 -15
-14 -28 -19 -28 -5 0 -9 -5 -9 -12 0 -6 -17 -34 -39 -62 -21 -28 -41 -61 -45
-72 -4 -12 -15 -29 -26 -39 -11 -10 -20 -26 -20 -35 0 -10 -7 -23 -15 -30 -8
-7 -15 -19 -15 -27 0 -7 -7 -16 -15 -19 -8 -4 -15 -12 -15 -20 0 -8 -4 -14
-10 -14 -5 0 -10 -8 -10 -18 0 -9 -9 -23 -19 -29 -11 -7 -22 -26 -26 -43 -4
-16 -12 -36 -18 -43 -7 -6 -31 -41 -54 -77 -24 -36 -46 -69 -51 -75 -4 -5 -18
-30 -31 -55 -13 -25 -28 -54 -34 -65 -6 -11 -17 -32 -25 -47 -7 -16 -18 -28
-23 -28 -5 0 -17 -17 -26 -37 -10 -21 -37 -66 -60 -99 -24 -34 -43 -66 -43
-72 0 -5 -7 -15 -15 -22 -9 -7 -25 -33 -36 -57 -11 -23 -24 -43 -29 -43 -6 0
-10 -6 -10 -12 0 -7 -14 -31 -30 -52 -17 -22 -30 -44 -30 -49 0 -6 -17 -35
-37 -66 -43 -63 -59 -89 -69 -111 -4 -8 -29 -49 -54 -90 -26 -41 -64 -106 -85
-145 -21 -38 -43 -74 -49 -80 -6 -5 -28 -46 -50 -89 -35 -71 -39 -88 -42 -170
-2 -50 -6 -131 -10 -181 -11 -126 -8 -164 15 -231 24 -68 24 -64 12 -64 -14 0
-51 106 -66 189 -13 76 -6 204 15 265 6 16 8 31 5 34 -2 3 -7 -4 -11 -14 -3
-10 -10 -28 -14 -39 -37 -88 -46 -188 -30 -315 6 -52 13 -180 16 -284 6 -265
10 -312 34 -390 20 -62 95 -195 125 -221 6 -5 18 -21 25 -35 7 -14 26 -41 41
-61 21 -27 25 -39 17 -47 -9 -9 -6 -12 13 -12 28 0 105 -73 94 -89 -11 -18
-25 -12 -25 11 0 17 -3 19 -12 10 -6 -6 -11 -25 -11 -42 0 -16 -4 -30 -9 -30
-4 0 -8 -4 -8 -10 0 -5 7 -10 15 -10 8 0 15 -7 15 -15 0 -8 -4 -15 -10 -15 -5
0 -10 -8 -10 -19 0 -11 -9 -21 -21 -24 -15 -4 -20 -11 -16 -21 7 -18 -2 -20
-37 -6 -31 11 -40 0 -21 -26 33 -43 4 -101 -37 -75 -18 11 -20 11 -14 -4 3 -9
6 -19 6 -21 0 -2 9 -4 20 -4 11 0 20 -4 20 -10 0 -17 -42 -32 -71 -26 -32 6
-39 -8 -11 -23 14 -7 18 -18 14 -40 -4 -28 -7 -30 -31 -25 -32 8 -40 14 -18
14 25 0 21 35 -5 52 -27 16 -78 12 -78 -6 0 -7 8 -21 18 -32 32 -36 41 -79 31
-150 -12 -83 -22 -101 -29 -49 -3 24 -10 39 -18 38 -6 -2 -12 6 -12 16 0 11
-5 23 -11 27 -8 5 -10 -6 -7 -34 2 -25 -1 -43 -8 -46 -7 -3 -8 -21 -3 -58 5
-38 3 -57 -6 -67 -18 -18 -34 -6 -29 22 l5 22 -10 -22 c-12 -26 -21 -29 -40
-10 -10 10 -15 8 -27 -7 -19 -27 -18 -43 6 -68 22 -24 26 -38 10 -38 -5 0 -10
-4 -10 -9 0 -16 29 -21 58 -10 15 7 22 13 15 16 -20 7 -15 23 7 23 21 0 26
-22 14 -54 -5 -13 -9 -14 -20 -5 -10 8 -14 8 -14 0 0 -6 -17 -11 -40 -11 -29
0 -40 -4 -40 -15 0 -8 8 -15 18 -15 16 -1 16 -1 0 -11 -21 -12 -24 -65 -6 -72
11 -4 10 -7 0 -18 -8 -9 -12 -58 -12 -171 l0 -158 3800 0 3800 0 0 2535 0
2535 -3028 0 -3028 0 -18 -37z m3899 -1348 c81 -25 114 -44 171 -99 41 -40 54
-59 54 -82 0 -36 5 -43 57 -87 29 -24 57 -37 90 -42 66 -10 107 -33 215 -122
52 -43 112 -91 133 -108 21 -16 70 -57 109 -90 66 -56 234 -192 381 -310 34
-27 131 -105 214 -173 144 -116 155 -123 181 -113 21 7 33 6 47 -5 17 -14 17
-15 -2 -30 -17 -13 -233 -134 -480 -268 -38 -21 -99 -56 -135 -77 -37 -22 -78
-40 -93 -41 -15 -1 -27 -7 -27 -13 0 -6 -55 -42 -122 -80 -68 -37 -148 -83
-178 -101 -30 -17 -100 -56 -155 -84 -55 -29 -107 -59 -116 -67 -9 -8 -77 -40
-150 -73 -85 -37 -147 -72 -169 -93 -72 -70 -128 -88 -150 -47 -9 17 -6 25 17
49 15 15 51 36 78 46 28 10 51 20 53 21 11 7 -25 47 -89 100 -39 32 -192 160
-338 283 -146 124 -357 299 -468 390 l-203 165 0 43 c0 40 -4 45 -61 92 -50
40 -72 51 -113 56 -70 10 -103 25 -159 75 -79 70 -93 115 -56 179 33 57 45 65
364 236 39 21 124 67 190 103 217 117 239 129 345 185 58 30 139 74 180 96
177 98 274 119 385 86z m-3253 -152 c32 -31 34 -36 12 -57 -10 -11 -34 -16
-68 -16 -77 0 -97 29 -51 75 32 33 72 32 107 -2z m1583 -327 c24 -16 55 -73
55 -103 0 -10 9 -61 20 -113 11 -52 27 -140 36 -195 17 -114 39 -232 60 -322
28 -124 26 -130 -88 -228 l-68 -57 6 58 c4 41 -1 87 -16 154 -12 52 -27 133
-35 180 -27 163 -34 200 -39 208 -2 4 -9 43 -15 87 -13 94 -36 131 -28 45 7
-68 34 -227 41 -238 3 -5 7 -32 10 -61 3 -29 10 -86 17 -127 6 -41 9 -77 5
-81 -3 -4 -102 -12 -219 -19 -116 -7 -242 -16 -279 -19 l-68 -7 0 66 c0 69
-13 94 -63 122 -29 16 -31 79 -6 114 19 25 21 34 12 62 l-11 33 -1 -39 c-1
-25 -9 -48 -26 -68 -35 -42 -31 -64 20 -115 42 -41 45 -47 45 -98 0 -42 -5
-60 -25 -83 -33 -39 -73 -48 -295 -63 -181 -12 -186 -12 -226 9 -30 15 -48 34
-63 65 -28 57 -27 93 4 129 14 16 25 38 25 49 0 19 -9 30 -74 88 -20 18 -26
32 -26 67 0 23 5 55 12 69 13 28 8 38 -14 30 -10 -4 -14 -24 -13 -81 0 -75 0
-76 38 -106 43 -35 46 -45 15 -58 l-23 -9 22 0 c34 -1 38 -20 9 -50 -32 -33
-33 -69 -6 -130 11 -24 19 -45 17 -47 -4 -4 -297 -29 -457 -40 -58 -4 -107 -7
-110 -8 -6 -1 -50 218 -44 223 2 2 52 8 111 13 167 13 171 16 13 11 -89 -4
-148 -10 -152 -17 -8 -12 0 -56 13 -71 13 -13 11 -68 -1 -60 -5 3 -10 1 -10
-4 0 -6 6 -11 14 -11 18 0 34 -62 17 -68 -6 -2 -11 -8 -11 -13 0 -4 7 -6 15
-3 8 4 15 2 15 -4 0 -6 -6 -12 -12 -15 -10 -3 -10 -7 0 -20 8 -9 13 -29 11
-44 -4 -45 18 -107 50 -139 27 -27 64 -48 126 -69 l20 -7 -20 -8 c-30 -13
-130 -12 -158 1 -39 17 -64 97 -37 114 15 9 12 41 -4 54 -8 7 -17 35 -21 64
-6 52 -46 337 -65 472 -21 151 -24 208 -10 203 9 -3 23 15 39 46 14 28 34 59
46 69 20 18 20 18 -5 6 -14 -6 -37 -25 -51 -40 -14 -16 -32 -29 -39 -29 -20 0
-39 32 -40 66 0 55 56 84 164 84 40 0 95 4 122 9 27 5 146 16 264 25 118 9
276 20 350 26 74 6 160 13 190 15 302 23 420 34 430 40 6 4 57 9 113 11 56 2
129 8 162 13 78 12 192 5 220 -13z m-20 -853 c3 -21 8 -47 10 -57 11 -52 -30
-117 -94 -150 -38 -20 -129 -33 -331 -46 -91 -6 -172 -13 -182 -16 -24 -7 -35
50 -14 79 9 12 23 32 32 44 15 21 15 26 -7 78 -12 30 -20 57 -17 60 3 4 64 10
134 16 71 5 176 13 234 18 58 4 133 9 167 10 l62 1 6 -37z m-620 -63 c20 -38
19 -69 -2 -92 -10 -11 -20 -40 -23 -66 l-5 -46 -105 -12 c-58 -6 -155 -14
-216 -18 l-112 -7 -6 35 c-5 24 -19 44 -47 67 -38 30 -40 34 -37 78 l3 46 65
-3 c83 -4 397 23 430 36 36 15 38 15 55 -18z m-585 -55 c0 -64 0 -65 40 -91
38 -25 67 -80 51 -95 -3 -3 -116 -14 -250 -24 -225 -16 -245 -16 -256 -1 -15
20 -40 225 -29 236 5 5 61 13 124 19 162 16 187 17 258 19 l62 2 0 -65z m-480
22 c0 -2 9 -53 20 -113 10 -60 16 -112 11 -117 -10 -10 -99 50 -122 83 -18 24
-41 135 -31 145 6 5 122 7 122 2z m1699 -101 c-10 -20 -25 -32 -72 -54 -5 -2
11 14 35 37 24 22 44 41 45 41 2 0 -2 -11 -8 -24z m-159 -65 c0 -10 -23 -12
-625 -56 -570 -41 -653 -47 -640 -41 13 6 276 28 720 61 313 23 516 40 538 44
4 0 7 -3 7 -8z m-1290 -101 c0 -6 -23 -9 -52 -8 l-53 1 45 7 c25 4 48 8 53 8
4 1 7 -2 7 -8z m-1730 -692 c0 -12 -14 -10 -28 4 -19 19 -14 29 8 16 11 -7 20
-16 20 -20z m-60 -8 c0 -5 -7 -10 -15 -10 -8 0 -15 5 -15 10 0 6 7 10 15 10 8
0 15 -4 15 -10z m53 -40 c-6 -22 -33 -28 -33 -7 0 17 10 27 26 27 7 0 10 -8 7
-20z m-316 -412 c-3 -8 -6 -5 -6 6 -1 11 2 17 5 13 3 -3 4 -12 1 -19z m-54
-233 c-7 -19 -19 -19 -26 -1 -3 8 -1 17 6 19 18 6 27 -2 20 -18z m-135 -35
c10 -16 10 -20 -1 -20 -14 0 -37 20 -37 32 0 16 25 8 38 -12z"/>
<path d="M5280 3533 c-8 -3 -268 -131 -578 -286 -371 -184 -569 -288 -579
-303 -8 -13 -12 -32 -9 -42 4 -11 75 -78 158 -148 164 -140 236 -202 283 -243
161 -143 705 -575 768 -609 34 -19 52 -23 98 -19 59 5 47 -1 439 207 91 48
246 129 345 180 99 51 192 103 207 117 21 20 28 38 33 87 3 33 11 94 16 134 8
55 8 81 -1 102 -8 19 -78 79 -208 177 -108 81 -282 213 -386 292 -105 80 -249
189 -321 243 -145 110 -202 133 -265 111z"/>
<path d="M2570 2870 c0 -14 26 -23 41 -15 8 6 7 10 -2 16 -19 12 -39 11 -39
-1z"/>
<path d="M1817 2740 c3 -47 9 -93 14 -102 5 -9 9 -30 9 -46 0 -16 7 -35 15
-42 19 -16 19 -5 0 94 -8 42 -12 82 -9 89 2 7 -4 30 -15 52 l-20 40 6 -85z"/>
<path d="M2410 2551 c0 -5 9 -7 20 -4 11 3 20 7 20 9 0 2 -9 4 -20 4 -11 0
-20 -4 -20 -9z"/>
<path d="M2333 2543 c15 -2 37 -2 50 0 12 2 0 4 -28 4 -27 0 -38 -2 -22 -4z"/>
<path d="M2208 2533 c12 -2 30 -2 40 0 9 3 -1 5 -23 4 -22 0 -30 -2 -17 -4z"/>
<path d="M390 1350 c0 -5 5 -10 10 -10 6 0 10 5 10 10 0 6 -4 10 -10 10 -5 0
-10 -4 -10 -10z"/>
<path d="M350 1217 c0 -35 2 -38 23 -32 30 10 46 25 25 25 -9 0 -24 10 -32 22
-16 22 -16 22 -16 -15z"/>
<path d="M210 1086 c0 -9 5 -16 10 -16 6 0 10 4 10 9 0 6 -4 13 -10 16 -5 3
-10 -1 -10 -9z"/>
<path d="M164 1066 c-8 -33 -2 -58 15 -64 11 -4 12 1 6 19 -4 13 -7 34 -7 47
0 29 -6 28 -14 -2z"/>
<path d="M280 1035 c0 -8 5 -15 10 -15 6 0 10 7 10 15 0 8 -4 15 -10 15 -5 0
-10 -7 -10 -15z"/>
</g>
</svg>
